<?xml version="1.0" encoding="UTF-8"?>
<svg id="Layer_1" xmlns="http://www.w3.org/2000/svg" version="1.1" viewBox="0 0 387.74 432.42">
  <!-- Generator: Adobe Illustrator 29.4.0, SVG Export Plug-In . SVG Version: 2.1.0 Build 152)  -->
  <defs>
    <style>
      .st0 {
        fill: #0059a6;
      }

      .st1 {
        fill: #2a9c40;
      }

      .st2 {
        fill: #f5dc3d;
      }

      .st3 {
        fill: #0091d4;
      }

      .st4 {
        fill: #ed1c24;
      }
    </style>
  </defs>
  <g>
    <path class="st4" d="M6.2,153.6l63.5,14.4s5.8,1.2,6.2,6.6,5.2,53.4,5.2,53.4c0,0,2.1,8.1-7.9,5.4s-59-15-59-15c0,0-4-1.1-5-6.2-1-5.1-8.9-52.4-8.9-52.4,0,0-2.3-8.7,5.9-6.2Z"/>
    <path class="st4" d="M104.4,175.4l65,14.9s8.8,1.2,9,11c.2,9.7.9,50.6.9,50.6,0,0,1.8,8.1-9.2,5s-61.2-16.1-61.2-16.1c0,0-6.2-1.4-6.6-6.2s-4.8-54.1-4.8-54.1c0,0-.8-7.2,6.9-5.1Z"/>
    <path class="st4" d="M208.8,201.6l72.4,15s6.1.8,5.9,9.1-2.4,53-2.4,53c0,0,.2,6.6-7.1,5s-68.9-16.9-68.9-16.9c0,0-5.6-.2-5.9-7s-2.4-54-2.4-54c0,0-1-6.4,8.4-4.2Z"/>
    <path class="st4" d="M7,218.4l3.2,23s.3,4.5,5.2,7.5,38.8,25.7,38.8,25.7c0,0,5.7,5.2,4.7-3.3s-4.3-38-4.3-38l-47.6-14.9Z"/>
    <path class="st4" d="M68.2,237l4.3,44.3s-.5,5,4,8.2,44.8,30.3,44.8,30.3c0,0,5.3,5,4.8-3s-2.2-44.7-2.2-44.7c0,0,1.2-5.5-4.2-9.2-5.3-3.7-40.5-25.2-40.5-25.2l-11-.7Z"/>
    <path class="st4" d="M145.2,279.7s-5.5-5.5-4.8,3.5,2.8,45.5,2.8,45.5c0,0-.8,4.8,5.2,8.7,6,3.8,48.3,32,48.3,32,0,0,7,6.2,6.8-3.8s.2-42.2.2-42.2c0,0,.8-5.5-4.7-9.8-5.4-4.4-53.8-33.9-53.8-33.9Z"/>
    <path class="st4" d="M30.5,261.9l-.2,4.5s-.3,2.7,2.8,7.8c3.9,6.5,18.5,29,18.5,29,0,0,5.3,9.5,4.2-2.7-1.2-13.6-2.3-21.8-2.3-21.8l-23-16.8Z"/>
    <path class="st4" d="M59.9,280.5l3.5,34.7s1,7.4,6.3,14.8c5.4,7.5,19.5,30,19.5,30,0,0,5.4,9.7,4.2-.8-1.5-12.9-3.7-36.7-3.7-36.7,0,0-.8-6.5-3-9.7-2.5-3.5-22.7-31.7-22.7-31.7,0,0-4.3-6.4-4.1-.6Z"/>
    <path class="st4" d="M100.1,335.9l2.3,38s-.3,4.8,2.8,9.8c3.2,5,27.3,41.4,27.3,41.4,0,0,4.8,8.3,3.8-4.2-1-13.2-1.2-35.5-1.2-35.5,0,0,0-4.3-3.7-9.3s-28.5-41.9-28.5-41.9c0,0-3.7-6.3-2.8,1.7Z"/>
    <path class="st0" d="M334.8,141.7l14.5-31.2s4-8,3.2,1.2-5.2,49.2-5.2,49.2c0,0,0,6.2-4,15s-14,31.2-14,31.2c0,0-2.8,10.7-1.8-3.2,1-14,3.5-51.5,3.5-51.5,0,0,.1-6.5,3.8-10.7Z"/>
    <path class="st0" d="M360.2,86.6l11.6-28.2s3.5-7.8,2.5,2-5.6,48.4-5.6,48.4c0,0-.1,6.2-2.1,10.7s-12.1,28.8-12.1,28.8c0,0-4.5,8.5-2.8-3.4s5.2-48.6,5.2-48.6c0,0,0-3.9,3.3-9.7Z"/>
    <path class="st0" d="M255.9,284l-32.7,27s-5.3,4-5.7,14.3c-.5,16.5-.8,40.3-.8,40.3,0,0-.8,9.5,6.9,2,9.1-8.9,39.1-35.7,39.6-36s5.8-4.4,5.8-10.8c0-7.3,1.3-33.8,1.3-33.8l-14.4-3Z"/>
    <path class="st0" d="M330.8,219.9c-6.3,5.5-11.3,9.5-11.3,9.5l-2.5,4.53c.6-1.5,1.11-2.78,1.5-3.73,3.6-8.7,2.8-16.5,2.8-16.5,0,0,3.2-30.5,3.8-41.7s-2.2-4-2.2-4l-19.8,44.7c-4,6.7-3.8,12-3.8,12,0,0-.14,26.47-.18,41.59l-13.22,23.91-1.7,18s-2,6.5,5,.5,36.2-31.8,36.2-31.8c0,0,4.8-2.7,5.7-12.5.8-9.8,4.2-41.7,4.2-41.7,0,0,1.5-8-4.5-2.8Z"/>
    <path class="st0" d="M348.6,203.9l34.5-29.2s5.6-5.2,4.5,2c-1.3,8.7-5.8,46.5-5.8,46.5,0,0,.2,2.8-4.2,7.2s-31.8,29-31.8,29c0,0-6.2,7.3-5.5-1.8.9-11,4.2-46,4.2-46,0,0,.6-4.4,4.1-7.7Z"/>
    <path class="st0" d="M201.55,371.15c-1.29.49-2.93-.37-3.93-1.05l-10.53-2.8-34.1,14.7s-5.5,1.3-4.9,9.5c.6,8.2,2.8,37.2,2.8,37.2,0,0-.6,6.2,7,2.6,7.6-3.7,52.7-24.2,52.7-24.2,0,0,7.3-2.3,7.3-8.3v-23.3l-16.34-4.35Z"/>
    <path class="st0" d="M235.7,358.7v31.8s-.5,6.7,7.5,2.3c8-4.3,50-24.2,50-24.2,0,0,4.8-1.8,5.2-7.3.3-5.5,3-37.7,3-37.7,0,0,1.8-7.7-4.7-4.7s-31.2,13.3-31.2,13.3l-29.8,26.5Z"/>
    <path class="st0" d="M323.6,306l49-21.8s6.2-3.7,5.5,4.2c-.7,7.8-5.3,40.8-5.3,40.8,0,0-1.2,3-5.5,5.2l-46.7,23.2s-6.8,4.5-5.7-5.2c1.2-9.7,3.2-38.5,3.2-38.5,0,0-.4-4.7,5.5-7.9Z"/>
    <g>
      <path d="M285.4,399.1c-1.4-.5-1.6-.8-1.6-1.2,0-.2.1-.4.2-.6.2-.2.5-.3,1-.3.9,0,1.5.3,1.8.5l.5.3.8-2.3-.4-.2c-.7-.4-1.7-.7-2.7-.7-1.2,0-2.2.4-2.9,1-.7.6-1.1,1.5-1.1,2.5s.5,2.4,3,3.3c1.4.5,1.6.9,1.6,1.4,0,.9-1,1-1.5,1-.8,0-1.6-.3-2.1-.6l-.5-.3-.8,2.4.3.2c.8.5,1.9.8,3.1.8h0c1.3,0,2.3-.4,3.1-1,.7-.6,1.2-1.6,1.2-2.6,0-2.2-1.6-3.1-3-3.6ZM284.1,405.7h0Z"/>
      <path d="M291.1,390.8c-.9,0-1.6.7-1.6,1.7,0,.9.7,1.6,1.6,1.6h0c.5,0,.9-.2,1.2-.5.3-.3.4-.7.4-1.1,0-1-.7-1.7-1.6-1.7ZM291.1,393.6h0Z"/>
      <polygon points="289.7 394.8 289.8 405.9 292.6 405.9 292.5 394.8 289.7 394.8"/>
      <path d="M300.1,394.5c-1.3,0-2.3.5-3,1.1l-.1-.9h-2.6v.5c.1.7.1,1.5.1,2.7l.1,7.9h2.8v-6.6c0-.3,0-.5.1-.7.2-.7.9-1.5,2-1.5,1.2,0,1.8.8,1.8,2.5v6.3h2.8l-.1-6.5c.2-3.6-2-4.8-3.9-4.8Z"/>
      <path d="M313.4,403c-.5.2-1.1.5-2.1.5-1.8,0-3-1.3-3-3.3,0-1.5.8-3.3,3.1-3.3.9,0,1.5.2,1.8.4l.5.3.7-2.4-.4-.2c-.5-.3-1.6-.6-2.8-.6-3.5,0-5.9,2.5-5.9,5.9s2.2,5.6,5.5,5.6h.1c1.4,0,2.5-.4,3.1-.7l.3-.2-.6-2.3-.3.3ZM311,405.5h0Z"/>
      <path d="M319.9,394.4c-3.1,0-5.2,2.5-5.2,6s2.2,5.6,5.5,5.6h.1c1.3,0,2.5-.2,3.6-.7l.4-.2-.6-2.3-.5.2c-.6.3-1.3.5-2.6.5-.8,0-2.6-.3-2.9-2.5h7l.1-.6v-.8c-.2-2.6-1.6-5.2-4.9-5.2ZM319.8,396.2v.5c.6,0,1,.2,1.4.5.4.4.6,1,.6,1.5h-4.2c.2-.9.9-2,2.2-2v-.5h0ZM320.2,405.4h0Z"/>
      <path d="M334.1,403.1l.2-.2c2.8-2.8,4.8-4.9,4.8-7.7,0-2.2-1.5-4.4-4.7-4.4-1.5,0-3,.6-4.2,1.5l-.3.2,1,2.2.5-.4c.6-.5,1.5-1,2.6-1.1,1.4,0,2.2.7,2.2,2.1,0,1.8-1.4,3.5-4.9,6.8l-1.6,1.6v1.8l9.7-.1v-2.5l-5.3.2Z"/>
      <path d="M345.5,390.7c-1.6,0-2.9.7-3.8,2.1-.9,1.3-1.4,3.2-1.4,5.5.1,4.6,2,7.4,5,7.4h0c1.7,0,3-.7,3.9-2.1.9-1.3,1.3-3.2,1.3-5.6,0-4.6-1.9-7.3-5-7.3ZM343.9,394.3c.3-.5.8-1.2,1.5-1.2v-.5h0v.5c2,0,2.3,3.1,2.3,5,0,1.7-.2,3-.6,3.9-.4.8-.9,1.2-1.6,1.3-1.4,0-2.3-1.9-2.3-5-.1-1.7.2-3.1.7-4ZM345.3,405.2h0Z"/>
      <polygon points="355.7 390.9 352.3 392.7 353 395.1 355.2 393.9 355.3 405.4 358 405.4 357.9 390.8 355.7 390.9"/>
      <path d="M372.3,401.6v-2.4h-1.9l-.1-8.4h-2.7l-6.2,9.1v1.9h6.3v3.7h2.7v-3.7l1.9-.2ZM367.6,399.2h-3l2.8-3.9c.1-.1.1-.2.2-.3v4.2Z"/>
    </g>
  </g>
  <g>
    <g>
      <path class="st4" d="M124.2,2.4s3.9-1.8,6.9-1.9,7,.3,8.8,3c1.7,2.7,1.8,4.6,1.5,6.8s-1.6,3.4-2.2,4.4-5.1,6-5.3,7.1c0,0,7.4.3,13.3-.2s19.9-2.3,19.9-2.3l13.9-1.5,15.9-1.8s5.9-.8,8.6-.6c2.7.2,6.4.6,9.1,1.5,2.7.9,5.1,2.2,6.2,3.8,1,1.5,1.5,3.2,1.1,4.7-.5,1.5-.7,2.2-2.9,3.9s-5.4,1.9-5.8,2c-.5.1-52.9,6.8-52.9,6.8l28.2,19.4s3.4,2.7,3.7,4,2.7,4-1.5,8.4-15,2.2-17.2,1.5-4.5-1.2-9.6-4.9-22.5-15.9-22.5-15.9c0,0-14-10.7-19-10.8s-11,9.2-12.9,10.9-4.9,5.2-11.8,6.6-9.3-.3-12.4-2.4-3.9-7.8-1.1-11.2c2.8-3.4,27-30.1,27-30.1,0,0,7.3-9.6,13-11.2Z"/>
      <path d="M181.8,73c-4,0-7.7-.9-8.8-1.2l-.5-.1c-2.1-.6-4.5-1.3-9.2-4.9-5-3.7-22.1-15.7-22.2-15.8-.2-.1-13.9-10.7-18.7-10.7-3.6,0-7.9,5.3-10.5,8.4-.9,1.1-1.6,1.9-2.1,2.4-.2.2-.5.4-.7.7-2,1.9-5.1,4.8-11.3,6-1.7.3-3.2.5-4.5.5-3.9,0-5.9-1.4-8.3-2.9-1.5-1-2.6-2.9-2.9-5.2-.4-2.5.3-5,1.7-6.8,2.8-3.4,26.8-29.8,27-30.1.3-.4,7.5-9.7,13.2-11.4.1,0,4-1.9,7-1.9h.7c4.2,0,7.1,1.1,8.4,3.2,1.8,2.8,1.9,4.9,1.5,7.2-.3,1.9-1.2,3.1-1.8,3.9-.2.2-.3.5-.5.7-.2.4-.9,1.2-1.7,2.2-.9,1.2-2.6,3.1-3.2,4.2.8,0,2.2.1,3.9.1,3.3,0,6.2-.1,8.6-.3,5.9-.5,19.8-2.3,19.9-2.3l29.8-3.3c.2,0,6-.8,8.6-.6,2.2.1,6.3.5,9.2,1.5,3.1,1.1,5.4,2.5,6.4,4,1.2,1.8,1.6,3.6,1.1,5.1s-.8,2.4-3.1,4.1c-1.4,1.1-3.4,1.7-6,2h-.1c-.4.1-43.5,5.6-51.6,6.7l27.1,18.7c.6.5,3.6,2.9,3.9,4.3,0,.2.1.4.3.7.6,1.5,1.8,4.3-1.9,8.2-1.5,1.8-4.5,2.7-8.7,2.7ZM122.3,39.3c5.2.1,18.8,10.5,19.4,10.9.2.1,17.2,12.1,22.2,15.8,4.6,3.4,6.8,4.1,8.9,4.7l.5.1c1,.3,4.7,1.2,8.5,1.2s6.7-.9,8.3-2.5c3.2-3.4,2.3-5.6,1.7-7.1-.1-.3-.3-.6-.3-.9-.2-.8-2.2-2.7-3.5-3.7l-29.2-20.1,1.3-.2c.5-.1,52.4-6.8,52.9-6.8h.1c2.9-.3,4.6-1.2,5.5-1.9,2.1-1.5,2.3-2.2,2.7-3.6.4-1.2,0-2.8-1-4.3-.9-1.3-3-2.6-5.9-3.6-2.8-1-6.8-1.3-9-1.4-2.6-.2-8.4.6-8.5.6l-29.8,3.3c-.1,0-14,1.8-19.9,2.3-2.4.2-5.3.3-8.7.3-2.7,0-4.7-.1-4.7-.1h-.6l.1-.6c.1-.8,1.6-2.6,3.7-5.2.7-.9,1.5-1.8,1.7-2.1.1-.2.3-.5.5-.7.6-.8,1.4-1.9,1.6-3.5.4-2.1.2-3.9-1.4-6.5-1.2-1.8-3.7-2.8-7.6-2.8h-.7c-2.9.1-6.7,1.9-6.7,1.9-5.5,1.6-12.8,11-12.8,11.1-.3.3-24.2,26.7-27,30.1-1.3,1.6-1.8,3.8-1.5,6,.3,2,1.2,3.6,2.5,4.5,2.3,1.5,4.1,2.8,7.7,2.8,1.3,0,2.7-.2,4.3-.5,5.9-1.1,8.8-3.9,10.8-5.7l.7-.7c.4-.4,1.1-1.3,2-2.3,2.8-3.5,7.2-8.8,11.2-8.8Z"/>
    </g>
    <g>
      <path class="st1" d="M231.9,42.6l10.1-14.4s7.2-8.2,20.5-5.8c13.2,2.4,87.9,14.7,87.9,14.7,0,0,10.4,2.1,10,9.1s-11.2,7.8-17.8,6.8-77.4-12.8-77.4-12.8c0,0-8.1-1.4-12.7,4.8-4.6,6.2-10.9,17.8-10.9,17.8,0,0-3.1,4.3,3,5.7,6.1,1.3,81.7,15.9,81.7,15.9,0,0,11.4,1.7,10.1,11.2-1.3,9.4-15.1,8.5-17.8,7.8s-97.4-20-97.4-20c0,0-5.8-.7-8-5.9-2.2-5.3.9-9.3,1-9.4-.1-.1,17.7-25.5,17.7-25.5Z"/>
      <path d="M322.8,104.3c-2,0-3.6-.2-4.4-.4-2.7-.7-96.5-19.8-97.4-20-.2,0-6.1-.7-8.4-6.2-2-4.7,0-8.4,1-9.8,0,0,.1-.2,17.8-25.6l10.1-14.4c.3-.3,5.8-6.5,16.1-6.5,1.6,0,3.2.2,4.9.5,13.1,2.4,87.2,14.6,87.9,14.7.5.1,10.9,2.3,10.4,9.6-.3,4.8-5.4,7.7-13.6,7.7-1.6,0-3.3-.1-4.8-.4-6.4-1-76.7-12.7-77.4-12.8,0,0-.8-.1-1.9-.1-2.5,0-7.2.6-10.3,4.8-4.5,6.2-10.8,17.7-10.9,17.8,0,.1-1.1,1.6-.6,2.9.4,1,1.5,1.6,3.2,2,6,1.3,80.9,15.8,81.7,15.9.1,0,11.9,1.9,10.5,11.7-.9,7.8-10,8.6-13.9,8.6ZM257.7,22.4c-9.9,0-15.3,6-15.3,6.1l-10,14.4c-6,8.6-17.5,25.1-17.8,25.5l-.1.1c-.9,1.2-2.7,4.6-.9,8.9,2.1,4.9,7.6,5.6,7.6,5.6,3.9.8,94.7,19.3,97.5,20,.8.2,2.4.4,4.2.4,3.6,0,12.1-.8,13-7.8,1.2-8.8-9.2-10.5-9.7-10.6-.8-.1-75.7-14.6-81.7-15.9-2.1-.5-3.5-1.4-4-2.6-.7-1.8.6-3.7.7-3.8,0-.1,6.4-11.6,10.9-17.8,3.3-4.5,8.3-5.2,11.1-5.2,1.2,0,2.1.1,2.1.1.7.1,71,11.8,77.4,12.8,1.5.2,3.1.3,4.6.3,2.9,0,12.2-.5,12.6-6.7.4-6.5-9.5-8.5-9.6-8.6-.7-.1-74.8-12.4-87.9-14.7-1.6-.3-3.2-.5-4.7-.5Z"/>
    </g>
    <g>
      <path class="st3" d="M59.9,69.4s8.9-8.9,20.3-6.5,93,19.2,93,19.2c0,0,9.9,2.1,8.2,11.2,0,0-3.4,10.4-18.2,7.4-14.7-3-75.6-15.8-75.6-15.8,0,0-8-2.8-15.4,4.6-7.8,7.8-23.6,28.3-23.6,28.3,0,0-4.3,4.4-1.6,5.6s24.5,5.4,24.5,5.4l59.2,12.3s12.8,3.7,8.3,13.7-16.1,10.2-20.8,9.2-104.6-23-104.6-23c0,0-6.3-1.7-7.1-7.2s2.5-7.8,3.5-9.1,49.9-55.3,49.9-55.3Z"/>
      <path d="M122.4,164.8c-1.5,0-2.9-.1-4.1-.4-4.6-.9-103.6-22.8-104.6-23-.3-.1-6.7-1.8-7.5-7.7-.7-4.8,1.6-7.3,2.9-8.7.3-.3.5-.5.7-.8,1-1.4,47.9-53,49.8-55.2.3-.3,7.2-7.1,16.8-7.1,1.4,0,2.7.1,4,.4,11.4,2.4,93,19.2,93,19.2.1,0,10.3,2.3,8.6,11.8,0,.1-2.9,8.3-13.6,8.3-1.6,0-3.3-.2-5.1-.5-14.5-2.9-75-15.7-75.6-15.8-.1,0-1.5-.5-3.7-.5-2.9,0-7.2.9-11.3,5-7.7,7.7-23.4,28.1-23.5,28.3-1.1,1.1-2.6,3.1-2.4,4.2,0,.2.1.4.6.6,2.7,1.1,24.2,5.3,24.4,5.3l59.2,12.3c.3.1,6.7,2,9,6.8,1.1,2.3,1,4.9-.3,7.6-4.2,8.9-13.5,9.9-17.3,9.9ZM76.3,63c-9.2,0-16,6.7-16,6.8-16.9,18.6-49,54.1-49.8,55.1-.2.3-.5.5-.7.9-1.3,1.4-3.3,3.6-2.7,7.9.8,5.2,6.7,6.8,6.8,6.8,1,.2,99.9,22,104.6,23,1.1.2,2.5.4,3.9.4,3.6,0,12.5-.9,16.3-9.3,1.1-2.5,1.2-4.8.3-6.8-2-4.4-8.2-6.2-8.3-6.2l-59.1-12.3c-.9-.2-21.8-4.3-24.6-5.4-.8-.3-1.1-.9-1.2-1.3-.4-1.9,2.3-4.7,2.6-5,.1-.2,15.8-20.6,23.6-28.3,4.3-4.4,8.9-5.3,12-5.3,2.3,0,3.9.5,3.9.5.5.1,61,12.9,75.5,15.8,1.7.4,3.4.5,4.9.5,10,0,12.6-7.5,12.7-7.6,1.6-8.4-7.4-10.5-7.8-10.5,0,0-81.6-16.9-93-19.2-1.3-.4-2.6-.5-3.9-.5Z"/>
    </g>
    <g>
      <path class="st2" d="M196,96.4s7-9,18.2-5.9c9.5,2.6,7.1,12.3,5.8,14.5s-26.9,41.7-26.9,41.7c0,0-4.2,5.4,2.9,6.9s67.3,15,67.3,15c0,0,6.5,2.4,10.9-2.9,4.4-5.3,25.7-46.3,25.7-46.3,0,0,6.8-12.4,18.8-7.2,9.6,4.1,5.4,14.7,5.4,14.7l-32.6,64.4s-5.2,9-17.7,7l-24-5.5-90.1-21s-10.4-3-6.1-13.6l42.4-61.8Z"/>
      <path d="M277.5,198.9c-1.2,0-2.4-.1-3.7-.3l-24-5.5-90.1-21c-.2-.1-4.7-1.4-6.7-5.4-1.2-2.5-1.2-5.5.2-8.9l.1-.1,42.3-61.6c.2-.3,5.3-6.8,13.9-6.8,1.6,0,3.2.2,4.8.7,3.3.9,5.6,2.7,6.7,5.4,1.6,3.9.3,8.3-.5,9.8-1.2,2.2-25.9,40.1-26.9,41.7,0,.1-1.6,2.2-1,3.9.4,1.1,1.6,1.8,3.6,2.3,7,1.5,66.7,14.9,67.3,15,.1,0,1.5.5,3.4.5,2,0,4.8-.6,7-3.3,4.3-5.2,25.4-45.8,25.6-46.2s4.9-8.8,13.5-8.8c1.9,0,3.9.4,6,1.3,10,4.3,5.7,15.2,5.7,15.3l-32.6,64.5c-.1.1-4.5,7.5-14.6,7.5ZM154.2,158.3c-1.2,3.1-1.3,5.8-.2,8,1.8,3.6,6,4.9,6,4.9l90.1,21,24,5.5c1.2.2,2.3.3,3.5.3,9.5,0,13.6-6.9,13.7-7l32.6-64.4c.1-.4,3.9-10.1-5.2-14-1.9-.8-3.8-1.2-5.6-1.2-8,0-12.6,8.2-12.6,8.2-.9,1.7-21.3,41.1-25.7,46.4-2.5,3-5.6,3.6-7.8,3.6s-3.6-.6-3.7-.6c-.5-.1-60.3-13.5-67.3-15-2.3-.5-3.8-1.5-4.3-2.9-.8-2.3,1-4.7,1.1-4.8.2-.4,25.6-39.5,26.9-41.6.6-1.1,2-5.3.5-8.9-1-2.4-3-4-6-4.9-1.5-.4-3-.6-4.5-.6-8.1,0-13.1,6.3-13.1,6.4l-42.4,61.6Z"/>
    </g>
  </g>
</svg>